<svg width="160" height="42" viewBox="0 0 160 42" fill="none" xmlns="http://www.w3.org/2000/svg">
<path d="M7.32861 12.6848C7.32861 12.6848 10.9484 16.1909 12.8644 16.1909C16.2811 16.1909 17.6439 12.9174 20.9028 12.9174C24.1616 12.9174 25.8738 16.1909 28.4572 16.1909C30.5239 16.1909 33.3165 13.8535 34.4544 12.6848" stroke="#1AAFFF" stroke-width="2.29688"/>
<path d="M7.32861 19.3879C7.32861 19.3879 10.9484 22.894 12.8644 22.894C16.2811 22.894 17.6439 19.6205 20.9028 19.6205C24.1616 19.6205 25.8738 22.894 28.4572 22.894C30.5239 22.894 33.3165 20.5566 34.4544 19.3879" stroke="#1AAFFF" stroke-width="2.29688"/>
<path d="M7.32861 26.0916C7.32861 26.0916 10.9484 29.5976 12.8644 29.5976C16.2811 29.5976 17.6439 26.3241 20.9028 26.3241C24.1616 26.3241 25.8738 29.5976 28.4572 29.5976C30.5239 29.5976 33.3165 27.2602 34.4544 26.0916" stroke="#1AAFFF" stroke-width="2.29688"/>
<circle cx="21" cy="21" r="19.8516" stroke="#1AAFFF" stroke-width="2.29688"/>
<path d="M63.1501 31.7853C61.7237 31.7853 60.3924 31.519 59.1561 30.9865C57.9199 30.454 56.8358 29.7217 55.9039 28.7898C54.972 27.8389 54.2398 26.7453 53.7072 25.5091C53.1937 24.2538 52.937 22.913 52.937 21.4866C52.937 20.0602 53.1937 18.7288 53.7072 17.4926C54.2398 16.2564 54.9625 15.1723 55.8754 14.2404C56.8073 13.2894 57.8819 12.5572 59.0991 12.0437C60.3353 11.5112 61.6666 11.2449 63.093 11.2449C64.5195 11.2449 65.8413 11.5112 67.0585 12.0437C68.2947 12.5572 69.3788 13.2894 70.3107 14.2404C71.2426 15.1723 71.9653 16.2659 72.4789 17.5211C73.0114 18.7574 73.2776 20.0887 73.2776 21.5151C73.2776 22.9415 73.0114 24.2823 72.4789 25.5376C71.9653 26.7738 71.2426 27.8579 70.3107 28.7898C69.3978 29.7217 68.3232 30.454 67.087 30.9865C65.8698 31.519 64.5575 31.7853 63.1501 31.7853ZM63.093 28.6472C64.4434 28.6472 65.6226 28.3429 66.6306 27.7343C67.6576 27.1257 68.4564 26.2888 69.0269 25.2238C69.6165 24.1397 69.9113 22.894 69.9113 21.4866C69.9113 20.4405 69.7401 19.4896 69.3978 18.6337C69.0745 17.7589 68.6085 17.0076 67.9999 16.38C67.3913 15.7334 66.6686 15.2389 65.8318 14.8965C65.0139 14.5542 64.101 14.383 63.093 14.383C61.7617 14.383 60.5826 14.6873 59.5555 15.2959C58.5475 15.8855 57.7487 16.7128 57.1592 17.7779C56.5886 18.8429 56.3033 20.0792 56.3033 21.4866C56.3033 22.5326 56.465 23.5026 56.7883 24.3965C57.1306 25.2713 57.5966 26.0226 58.1862 26.6502C58.7948 27.2778 59.5175 27.7723 60.3543 28.1337C61.1912 28.476 62.1041 28.6472 63.093 28.6472ZM83.5177 31.7853C82.4717 31.7853 81.5398 31.5666 80.722 31.1291C79.9042 30.6727 79.2575 30.0546 78.782 29.2748C78.3256 28.495 78.0974 27.6106 78.0974 26.6217V22.6848C78.0974 21.6958 78.3351 20.8114 78.8106 20.0316C79.286 19.2518 79.9327 18.6432 80.7505 18.2058C81.5683 17.7494 82.4907 17.5211 83.5177 17.5211C84.754 17.5211 85.8666 17.8445 86.8556 18.4911C87.8636 19.1187 88.6528 19.9746 89.2234 21.0586C89.813 22.1237 90.1078 23.3314 90.1078 24.6817C90.1078 26.0131 89.813 27.2208 89.2234 28.3048C88.6528 29.3699 87.8636 30.2162 86.8556 30.8438C85.8666 31.4715 84.754 31.7853 83.5177 31.7853ZM83.0042 28.8183C83.765 28.8183 84.4307 28.6472 85.0012 28.3048C85.5908 27.9435 86.0473 27.449 86.3706 26.8214C86.7129 26.1937 86.8841 25.471 86.8841 24.6532C86.8841 23.8354 86.7129 23.1127 86.3706 22.4851C86.0473 21.8574 85.5908 21.3725 85.0012 21.0301C84.4307 20.6688 83.765 20.4881 83.0042 20.4881C82.2435 20.4881 81.5683 20.6688 80.9787 21.0301C80.3891 21.3725 79.9327 21.8574 79.6094 22.4851C79.286 23.1127 79.1244 23.8354 79.1244 24.6532C79.1244 25.471 79.286 26.1937 79.6094 26.8214C79.9327 27.449 80.3891 27.9435 80.9787 28.3048C81.5683 28.6472 82.2435 28.8183 83.0042 28.8183ZM76.186 37.2057V17.8064H79.3241V21.4866L78.782 24.8244L79.3241 28.1337V37.2057H76.186ZM99.0964 31.7853C97.7271 31.7853 96.4908 31.481 95.3877 30.8724C94.3037 30.2448 93.4383 29.3889 92.7917 28.3048C92.164 27.2208 91.8502 26.0035 91.8502 24.6532C91.8502 23.3029 92.164 22.0952 92.7917 21.0301C93.4193 19.946 94.2656 19.0902 95.3307 18.4626C96.4148 17.8349 97.613 17.5211 98.9253 17.5211C100.2 17.5211 101.322 17.8159 102.292 18.4055C103.281 18.9951 104.051 19.8034 104.602 20.8304C105.173 21.8574 105.458 23.0271 105.458 24.3394C105.458 24.5676 105.439 24.8054 105.401 25.0526C105.382 25.2808 105.344 25.5376 105.287 25.8229H94.0469V23.2553H103.661L102.491 24.2823C102.453 23.4455 102.292 22.7418 102.006 22.1712C101.721 21.6007 101.312 21.1632 100.78 20.8589C100.266 20.5546 99.629 20.4025 98.8682 20.4025C98.0694 20.4025 97.3752 20.5737 96.7856 20.916C96.196 21.2583 95.7396 21.7433 95.4163 22.3709C95.093 22.9795 94.9313 23.7118 94.9313 24.5676C94.9313 25.4235 95.1025 26.1747 95.4448 26.8214C95.7871 27.468 96.2721 27.972 96.8997 28.3334C97.5274 28.6757 98.2501 28.8469 99.0679 28.8469C99.7716 28.8469 100.418 28.7232 101.008 28.476C101.616 28.2288 102.13 27.8674 102.548 27.3919L104.545 29.4174C103.88 30.1972 103.071 30.7868 102.12 31.1862C101.169 31.5856 100.161 31.7853 99.0964 31.7853ZM117.36 31.5V23.5977C117.36 22.6848 117.065 21.9335 116.475 21.3439C115.905 20.7543 115.163 20.4595 114.25 20.4595C113.641 20.4595 113.099 20.5927 112.624 20.8589C112.148 21.1252 111.778 21.4961 111.511 21.9715C111.245 22.447 111.112 22.9891 111.112 23.5977L109.885 22.913C109.885 21.8669 110.113 20.9445 110.57 20.1457C111.026 19.3279 111.654 18.6908 112.453 18.2343C113.271 17.7589 114.184 17.5211 115.192 17.5211C116.219 17.5211 117.131 17.7874 117.93 18.3199C118.729 18.8334 119.357 19.5086 119.813 20.3454C120.27 21.1632 120.498 22.0191 120.498 22.913V31.5H117.36ZM107.974 31.5V17.8064H111.112V31.5H107.974ZM129.678 31.7853C128.099 31.7853 126.758 31.5 125.655 30.9294C124.552 30.3589 123.563 29.522 122.688 28.4189L124.913 26.1937C125.465 26.9925 126.121 27.6202 126.882 28.0766C127.643 28.514 128.613 28.7328 129.792 28.7328C130.895 28.7328 131.77 28.5045 132.416 28.0481C133.082 27.5916 133.415 26.964 133.415 26.1652C133.415 25.4995 133.244 24.9575 132.901 24.5391C132.559 24.1207 132.103 23.7783 131.532 23.5121C130.98 23.2268 130.362 22.9795 129.678 22.7703C129.012 22.5421 128.337 22.2949 127.652 22.0286C126.986 21.7433 126.368 21.3915 125.798 20.9731C125.246 20.5546 124.799 20.0126 124.457 19.3469C124.115 18.6813 123.943 17.8349 123.943 16.8079C123.943 15.6288 124.229 14.6303 124.799 13.8125C125.389 12.9756 126.178 12.3385 127.167 11.9011C128.156 11.4636 129.259 11.2449 130.476 11.2449C131.789 11.2449 132.958 11.5017 133.985 12.0152C135.031 12.5287 135.878 13.1848 136.524 13.9836L134.299 16.2088C133.729 15.5622 133.13 15.0867 132.502 14.7824C131.893 14.4591 131.19 14.2974 130.391 14.2974C129.402 14.2974 128.622 14.4971 128.052 14.8965C127.5 15.2959 127.224 15.857 127.224 16.5797C127.224 17.1883 127.395 17.6828 127.738 18.0632C128.08 18.4245 128.527 18.7383 129.079 19.0046C129.649 19.2518 130.267 19.4896 130.933 19.7178C131.618 19.946 132.293 20.2028 132.958 20.4881C133.643 20.7734 134.261 21.1442 134.813 21.6007C135.383 22.0381 135.84 22.6087 136.182 23.3124C136.524 24.0161 136.696 24.9005 136.696 25.9655C136.696 27.7533 136.058 29.1702 134.784 30.2162C133.529 31.2623 131.827 31.7853 129.678 31.7853ZM145.159 31.7853C143.999 31.7853 142.962 31.5285 142.049 31.015C141.155 30.5015 140.452 29.7978 139.938 28.9039C139.444 27.991 139.197 26.945 139.197 25.7658V17.8064H142.335V25.6232C142.335 26.2888 142.439 26.8594 142.648 27.3349C142.877 27.7913 143.2 28.1432 143.618 28.3904C144.056 28.6377 144.569 28.7613 145.159 28.7613C146.072 28.7613 146.766 28.495 147.241 27.9625C147.736 27.4109 147.983 26.6312 147.983 25.6232V17.8064H151.121V25.7658C151.121 26.964 150.865 28.0195 150.351 28.9325C149.857 29.8263 149.162 30.53 148.269 31.0435C147.375 31.538 146.338 31.7853 145.159 31.7853ZM154.305 31.5V17.8064H157.443V31.5H154.305ZM155.874 15.2959C155.342 15.2959 154.895 15.1152 154.533 14.7539C154.191 14.3925 154.02 13.9456 154.02 13.4131C154.02 12.8805 154.191 12.4336 154.533 12.0722C154.895 11.7109 155.342 11.5302 155.874 11.5302C156.426 11.5302 156.873 11.7109 157.215 12.0722C157.557 12.4336 157.729 12.8805 157.729 13.4131C157.729 13.9456 157.557 14.3925 157.215 14.7539C156.873 15.1152 156.426 15.2959 155.874 15.2959Z" fill="#1AAFFF"/>
</svg>
