<?xml version="1.0" encoding="utf-8"?>
<!-- Generator: Adobe Illustrator 21.0.0, SVG Export Plug-In . SVG Version: 6.00 Build 0)  -->
<svg version="1.1" id="图层_1" xmlns="http://www.w3.org/2000/svg" xmlns:xlink="http://www.w3.org/1999/xlink" x="0px" y="0px"
	 viewBox="0 0 128 128" style="enable-background:new 0 0 128 128;" xml:space="preserve">
<style type="text/css">
	.st0{clip-path:url(#SVGID_2_);}
	.st1{fill:#FFFFFF;}
	.st2{fill:url(#SVGID_3_);}
</style>
<g>
	<defs>
		<path id="SVGID_1_" d="M32,0h64c17.7,0,32,14.3,32,32v64c0,17.7-14.3,32-32,32H32c-17.7,0-32-14.3-32-32V32C0,14.3,14.3,0,32,0z"
			/>
	</defs>
	<clipPath id="SVGID_2_">
		<use xlink:href="#SVGID_1_"  style="overflow:visible;"/>
	</clipPath>
	<g class="st0">
		<path class="st1" d="M32,0h64c17.7,0,32,14.3,32,32v64c0,17.7-14.3,32-32,32H32c-17.7,0-32-14.3-32-32V32C0,14.3,14.3,0,32,0z"/>
		
			<linearGradient id="SVGID_3_" gradientUnits="userSpaceOnUse" x1="9.094947e-13" y1="0.74" x2="128" y2="128.74" gradientTransform="matrix(1 0 0 -1 0 128.74)">
			<stop  offset="0" style="stop-color:#8F3CFF"/>
			<stop  offset="1" style="stop-color:#53E7F0"/>
		</linearGradient>
		<rect y="0" class="st2" width="128" height="128"/>
		<g>
			<path class="st1" d="M78.4,56.6c-2.9,0-5.1-1.6-7.3-3.2c-2.2-1.6-4.4-3.1-7.1-3.1c-2.6,0-4.4,1.3-6.5,2.8c-2.3,1.6-5,3.5-8.8,3.5
				c-4.1,0-10.5-6-11.7-7.2l2.3-2.4c2.7,2.6,7.4,6.2,9.4,6.2c2.8,0,4.8-1.4,6.9-2.9c2.3-1.6,4.8-3.4,8.4-3.4c3.8,0,6.6,2,9,3.7
				c1.9,1.4,3.6,2.6,5.4,2.6c3.1,0,7.9-3.8,10.3-6.2l2.4,2.3C90.7,49.7,83.9,56.6,78.4,56.6z"/>
		</g>
		<g>
			<path class="st1" d="M78.4,69.4c-2.9,0-5.1-1.6-7.3-3.2c-2.2-1.6-4.4-3.1-7.1-3.1c-2.6,0-4.4,1.3-6.5,2.8c-2.3,1.6-5,3.5-8.8,3.5
				c-4.1,0-10.5-6-11.7-7.2l2.3-2.4c2.7,2.6,7.4,6.2,9.4,6.2c2.8,0,4.8-1.4,6.9-2.9c2.3-1.6,4.8-3.4,8.4-3.4c3.8,0,6.6,2,9,3.7
				c1.9,1.4,3.6,2.5,5.4,2.5c3.1,0,7.9-3.8,10.3-6.2l2.4,2.3C90.7,62.5,83.9,69.4,78.4,69.4z"/>
		</g>
		<g>
			<path class="st1" d="M78.4,82.2c-2.9,0-5.1-1.6-7.3-3.2c-2.2-1.6-4.4-3.1-7.1-3.1c-2.6,0-4.4,1.3-6.5,2.8c-2.3,1.6-5,3.5-8.8,3.5
				c-4.1,0-10.5-6-11.7-7.2l2.3-2.4c2.7,2.6,7.4,6.2,9.4,6.2c2.8,0,4.8-1.4,6.9-2.9c2.3-1.6,4.8-3.4,8.4-3.4c3.8,0,6.6,2,9,3.7
				c1.9,1.4,3.6,2.5,5.4,2.5c3.1,0,7.9-3.8,10.3-6.2L91,75C90.7,75.3,83.9,82.2,78.4,82.2z"/>
		</g>
		<g>
			<path class="st1" d="M64.1,104.3C42,104.3,24,86.3,24,64.1S42,24,64.1,24s40.1,18,40.1,40.1S86.3,104.3,64.1,104.3z M64.1,27.3
				c-20.3,0-36.8,16.5-36.8,36.8c0,20.3,16.5,36.8,36.8,36.8c20.3,0,36.8-16.5,36.8-36.8C100.9,43.8,84.4,27.3,64.1,27.3z"/>
		</g>
	</g>
</g>
</svg>
